<svg width="36" height="35" viewBox="0 0 36 35" fill="none" xmlns="http://www.w3.org/2000/svg">
<path fill-rule="evenodd" clip-rule="evenodd" d="M15.2254 0.753473C15.3356 0.310747 15.7332 0 16.1895 0H19.8063C20.2626 0 20.6602 0.310772 20.7704 0.753523L21.0703 1.95836C21.3583 3.11522 22.0038 3.81142 22.7245 4.10996C23.4453 4.40849 24.394 4.37264 25.4157 3.75827L26.4798 3.11841C26.8708 2.88329 27.3716 2.9447 27.6943 3.26731L30.2518 5.82485C30.5744 6.14746 30.6358 6.64833 30.4007 7.03933L29.7608 8.10341L28.9094 7.59143L29.7608 8.10341C29.1465 9.12508 29.1106 10.0738 29.4092 10.7946C29.7077 11.5153 30.4039 12.1608 31.5608 12.4488L31.3207 13.4129L31.5608 12.4488L32.7656 12.7488C33.2084 12.859 33.5191 13.2566 33.5191 13.7128V16.8661C33.5191 17.4148 33.0743 17.8596 32.5256 17.8596C31.9769 17.8596 31.5322 17.4148 31.5322 16.8661V14.4893L31.0807 14.3769L31.2887 13.5415L31.0807 14.3769C29.4094 13.9608 28.149 12.9445 27.5734 11.5549C26.9979 10.1654 27.1705 8.55546 28.058 7.07946L28.2978 6.6808L26.8383 5.22135L26.4397 5.46107C24.9637 6.34864 23.3537 6.52123 21.9642 5.94567C20.5746 5.37011 19.5583 4.10969 19.1422 2.43838L19.1422 2.43832L19.0298 1.98696H16.9659L16.8536 2.43837L16.8536 2.43838C16.4375 4.10969 15.4211 5.37011 14.0316 5.94567C12.642 6.52123 11.0321 6.34864 9.55608 5.46107L9.15742 5.22134L7.69791 6.68081L7.93763 7.07946C8.8252 8.55546 8.99779 10.1654 8.42223 11.5549C7.84667 12.9445 6.58625 13.9608 4.91494 14.3769L4.91494 14.3769L4.46352 14.4893V16.8661C4.46352 17.4148 4.01872 17.8596 3.47004 17.8596C2.92136 17.8596 2.47656 17.4148 2.47656 16.8661V13.7128C2.47656 13.2566 2.78731 12.859 3.23003 12.7488L4.43492 12.4488C4.43492 12.4488 4.43492 12.4488 4.43493 12.4488C5.59178 12.1608 6.28798 11.5153 6.58652 10.7946C6.88505 10.0738 6.8492 9.12508 6.23484 8.10341L7.08623 7.59143L6.23483 8.10341L5.59497 7.03932C5.35985 6.64833 5.42127 6.14745 5.74388 5.82485L8.30149 3.2673C8.6241 2.9447 9.12496 2.88329 9.51595 3.11841L10.58 3.75827L10.0681 4.60967L10.58 3.75827C11.6017 4.37264 12.5504 4.40849 13.2712 4.10996C13.9919 3.81142 14.6374 3.11522 14.9255 1.95836C14.9255 1.95836 14.9255 1.95836 14.9255 1.95836L15.2254 0.753473Z" fill="#4566D4"/>
<path fill-rule="evenodd" clip-rule="evenodd" d="M11.5391 15.5201C11.5391 11.9539 14.4305 9.0625 17.9967 9.0625C21.5629 9.0625 24.4543 11.9539 24.4543 15.5201C24.4543 16.172 24.3574 16.8032 24.1761 17.3989C24.0164 17.9238 23.4613 18.2199 22.9364 18.0601C22.4115 17.9004 22.1155 17.3453 22.2752 16.8204C22.3999 16.4107 22.4673 15.9743 22.4673 15.5201C22.4673 13.0513 20.4655 11.0495 17.9967 11.0495C15.5278 11.0495 13.526 13.0513 13.526 15.5201C13.526 15.9743 13.5934 16.4107 13.7181 16.8204C13.8779 17.3453 13.5818 17.9004 13.0569 18.0601C12.532 18.2199 11.977 17.9238 11.8172 17.3989C11.6359 16.8032 11.5391 16.1719 11.5391 15.5201Z" fill="#4566D4"/>
<path fill-rule="evenodd" clip-rule="evenodd" d="M11.2891 15.5201C11.2891 11.8158 14.2924 8.8125 17.9967 8.8125C21.7009 8.8125 24.7043 11.8158 24.7043 15.5201C24.7043 16.1968 24.6037 16.8526 24.4153 17.4717C24.2153 18.1287 23.5206 18.4992 22.8636 18.2993C22.2066 18.0993 21.8361 17.4046 22.0361 16.7476C22.1536 16.3613 22.2173 15.9495 22.2173 15.5201C22.2173 13.1893 20.3274 11.2995 17.9967 11.2995C15.6659 11.2995 13.776 13.1893 13.776 15.5201C13.776 15.9495 13.8397 16.3613 13.9573 16.7476C14.1572 17.4046 13.7867 18.0993 13.1297 18.2993C12.4727 18.4992 11.778 18.1287 11.5781 17.4717C11.3896 16.8526 11.2891 16.1968 11.2891 15.5201ZM17.9967 9.3125C14.5685 9.3125 11.7891 12.092 11.7891 15.5201C11.7891 16.1471 11.8822 16.7538 12.0564 17.3261C12.176 17.719 12.5913 17.9405 12.9841 17.8209L13.0569 18.0601L12.9841 17.8209C13.377 17.7014 13.5985 17.286 13.4789 16.8932C13.3471 16.4601 13.276 15.9992 13.276 15.5201C13.276 12.9132 15.3898 10.7995 17.9967 10.7995C20.6036 10.7995 22.7173 12.9132 22.7173 15.5201C22.7173 15.9992 22.6462 16.4601 22.5144 16.8932C22.3949 17.286 22.6164 17.7014 23.0092 17.8209C23.402 17.9405 23.8174 17.719 23.9369 17.3261C24.1111 16.7538 24.2043 16.1471 24.2043 15.5201C24.2043 12.092 21.4248 9.3125 17.9967 9.3125Z" fill="#4566D4"/>
<path fill-rule="evenodd" clip-rule="evenodd" d="M11.2891 15.5201C11.2891 11.8158 14.2924 8.8125 17.9967 8.8125C21.7009 8.8125 24.7043 11.8158 24.7043 15.5201C24.7043 16.1968 24.6037 16.8526 24.4153 17.4717C24.2153 18.1287 23.5206 18.4992 22.8636 18.2993C22.2066 18.0993 21.8361 17.4046 22.0361 16.7476C22.1536 16.3613 22.2173 15.9495 22.2173 15.5201C22.2173 13.1893 20.3274 11.2995 17.9967 11.2995C15.6659 11.2995 13.776 13.1893 13.776 15.5201C13.776 15.9495 13.8397 16.3613 13.9573 16.7476C14.1572 17.4046 13.7867 18.0993 13.1297 18.2993C12.4727 18.4992 11.778 18.1287 11.5781 17.4717C11.3896 16.8526 11.2891 16.1968 11.2891 15.5201ZM17.9967 9.3125C14.5685 9.3125 11.7891 12.092 11.7891 15.5201C11.7891 16.1471 11.8822 16.7538 12.0564 17.3261C12.176 17.719 12.5913 17.9405 12.9841 17.8209L13.0569 18.0601L12.9841 17.8209C13.377 17.7014 13.5985 17.286 13.4789 16.8932C13.3471 16.4601 13.276 15.9992 13.276 15.5201C13.276 12.9132 15.3898 10.7995 17.9967 10.7995C20.6036 10.7995 22.7173 12.9132 22.7173 15.5201C22.7173 15.9992 22.6462 16.4601 22.5144 16.8932C22.3949 17.286 22.6164 17.7014 23.0092 17.8209C23.402 17.9405 23.8174 17.719 23.9369 17.3261C24.1111 16.7538 24.2043 16.1471 24.2043 15.5201C24.2043 12.092 21.4248 9.3125 17.9967 9.3125Z" fill="#4566D4"/>
<path fill-rule="evenodd" clip-rule="evenodd" d="M1.04297 17.1107C1.04297 16.562 1.48776 16.1172 2.03645 16.1172H33.9602C34.5089 16.1172 34.9537 16.562 34.9537 17.1107V33.0063C34.9537 33.555 34.5089 33.9998 33.9602 33.9998H2.03645C1.48776 33.9998 1.04297 33.555 1.04297 33.0063V17.1107ZM3.02992 18.1041V32.0128H32.9667V18.1041H3.02992Z" fill="#4566D4"/>
<path fill-rule="evenodd" clip-rule="evenodd" d="M0.792969 17.1107C0.792969 16.4239 1.34969 15.8672 2.03645 15.8672H33.9602C34.647 15.8672 35.2037 16.4239 35.2037 17.1107V33.0063C35.2037 33.6931 34.647 34.2498 33.9602 34.2498H2.03645C1.34969 34.2498 0.792969 33.6931 0.792969 33.0063V17.1107ZM2.03645 16.3672C1.62584 16.3672 1.29297 16.7001 1.29297 17.1107V33.0063C1.29297 33.4169 1.62584 33.7498 2.03645 33.7498H33.9602C34.3708 33.7498 34.7037 33.4169 34.7037 33.0063V17.1107C34.7037 16.7001 34.3708 16.3672 33.9602 16.3672H2.03645ZM2.77992 18.1041C2.77992 17.9661 2.89185 17.8541 3.02992 17.8541H32.9667C33.1048 17.8541 33.2167 17.9661 33.2167 18.1041V32.0128C33.2167 32.1509 33.1048 32.2628 32.9667 32.2628H3.02992C2.89185 32.2628 2.77992 32.1509 2.77992 32.0128V18.1041ZM3.27992 18.3541V31.7628H32.7167V18.3541H3.27992Z" fill="#4566D4"/>
<path fill-rule="evenodd" clip-rule="evenodd" d="M5.08203 29.0325C5.08203 28.4839 5.52683 28.0391 6.07551 28.0391H17.9972C18.5459 28.0391 18.9907 28.4839 18.9907 29.0325C18.9907 29.5812 18.5459 30.026 17.9972 30.026H6.07551C5.52683 30.026 5.08203 29.5812 5.08203 29.0325Z" fill="#4566D4"/>
<path fill-rule="evenodd" clip-rule="evenodd" d="M4.83203 29.0325C4.83203 28.3458 5.38876 27.7891 6.07551 27.7891H17.9973C18.684 27.7891 19.2407 28.3458 19.2407 29.0325C19.2407 29.7193 18.684 30.276 17.9973 30.276H6.07551C5.38876 30.276 4.83203 29.7193 4.83203 29.0325ZM6.07551 28.2891C5.6649 28.2891 5.33203 28.6219 5.33203 29.0325C5.33203 29.4432 5.6649 29.776 6.07551 29.776H17.9973C18.4079 29.776 18.7407 29.4432 18.7407 29.0325C18.7407 28.6219 18.4079 28.2891 17.9973 28.2891H6.07551Z" fill="#4566D4"/>
<path fill-rule="evenodd" clip-rule="evenodd" d="M5.08203 21.0872C5.08203 20.5385 5.52683 20.0938 6.07551 20.0938H17.9972C18.5459 20.0938 18.9907 20.5385 18.9907 21.0872C18.9907 21.6359 18.5459 22.0807 17.9972 22.0807H6.07551C5.52683 22.0807 5.08203 21.6359 5.08203 21.0872Z" fill="#4566D4"/>
<path fill-rule="evenodd" clip-rule="evenodd" d="M4.83203 21.0872C4.83203 20.4005 5.38876 19.8438 6.07551 19.8438H17.9973C18.684 19.8438 19.2407 20.4005 19.2407 21.0872C19.2407 21.774 18.684 22.3307 17.9973 22.3307H6.07551C5.38876 22.3307 4.83203 21.774 4.83203 21.0872ZM6.07551 20.3438C5.6649 20.3438 5.33203 20.6766 5.33203 21.0872C5.33203 21.4978 5.6649 21.8307 6.07551 21.8307H17.9973C18.4079 21.8307 18.7407 21.4978 18.7407 21.0872C18.7407 20.6766 18.4079 20.3438 17.9973 20.3438H6.07551Z" fill="#4566D4"/>
<path fill-rule="evenodd" clip-rule="evenodd" d="M1.04297 25.056C1.04297 24.5073 1.48776 24.0625 2.03645 24.0625H33.9602C34.5089 24.0625 34.9537 24.5073 34.9537 25.056C34.9537 25.6047 34.5089 26.0495 33.9602 26.0495H2.03645C1.48776 26.0495 1.04297 25.6047 1.04297 25.056Z" fill="#4566D4"/>
<path fill-rule="evenodd" clip-rule="evenodd" d="M0.792969 25.056C0.792969 24.3692 1.34969 23.8125 2.03645 23.8125H33.9602C34.647 23.8125 35.2037 24.3692 35.2037 25.056C35.2037 25.7427 34.647 26.2995 33.9602 26.2995H2.03645C1.34969 26.2995 0.792969 25.7427 0.792969 25.056ZM2.03645 24.3125C1.62584 24.3125 1.29297 24.6454 1.29297 25.056C1.29297 25.4666 1.62584 25.7995 2.03645 25.7995H33.9602C34.3708 25.7995 34.7037 25.4666 34.7037 25.056C34.7037 24.6454 34.3708 24.3125 33.9602 24.3125H2.03645Z" fill="#4566D4"/>
</svg>
