<svg width="36" height="36" viewBox="0 0 36 36" fill="none" xmlns="http://www.w3.org/2000/svg">
<path fill-rule="evenodd" clip-rule="evenodd" d="M5.00499 9.03338C5.20864 4.56236 8.89789 1 13.4192 1C15.7074 1 17.7825 1.91355 19.2994 3.39284C20.3987 2.86744 21.6295 2.57323 22.9271 2.57323C26.9236 2.57323 30.268 5.35564 31.1327 9.08881C33.4032 10.0395 35 12.2816 35 14.8994C35 18.3772 32.1807 21.1966 28.7028 21.1966H7.29724C3.81939 21.1966 1 18.3772 1 14.8994C1 12.2293 2.66119 9.94989 5.00499 9.03338ZM13.4192 2.99219C9.86752 2.99219 6.98832 5.87144 6.98832 9.42317C6.98832 9.51848 6.99079 9.61527 6.99522 9.71425C7.01638 10.187 6.70202 10.6094 6.2431 10.7248C4.37448 11.1948 2.99219 12.8868 2.99219 14.8994C2.99219 17.2769 4.91965 19.2044 7.29724 19.2044H28.7028C31.0804 19.2044 33.0078 17.277 33.0078 14.8994C33.0078 12.9644 31.7303 11.3254 29.9702 10.784C29.6065 10.6722 29.3383 10.3628 29.2791 9.98691C28.7953 6.91498 26.1348 4.56542 22.9271 4.56542C21.7116 4.56542 20.5777 4.90191 19.6097 5.48615C19.1906 5.73907 18.6499 5.65007 18.3341 5.27617C17.1527 3.87774 15.3899 2.99219 13.4192 2.99219Z" fill="#4566D4"/>
<path fill-rule="evenodd" clip-rule="evenodd" d="M4.76404 8.86132C5.05367 4.33304 8.81792 0.75 13.4192 0.75C15.7129 0.75 17.799 1.64176 19.3487 3.09412C20.4406 2.59892 21.6528 2.32323 22.9271 2.32323C26.9983 2.32323 30.4118 5.12718 31.3467 8.90872C33.6443 9.92416 35.25 12.2226 35.25 14.8994C35.25 18.5153 32.3188 21.4466 28.7028 21.4466H7.29724C3.68132 21.4466 0.75 18.5153 0.75 14.8994C0.75 12.1801 2.40704 9.85121 4.76404 8.86132ZM13.4192 1.25C9.03215 1.25 5.45233 4.70663 5.25473 9.04475C5.25023 9.14344 5.18804 9.23023 5.09603 9.26621C2.84479 10.1465 1.25 12.3357 1.25 14.8994C1.25 18.2391 3.95746 20.9466 7.29724 20.9466H28.7028C32.0426 20.9466 34.75 18.2391 34.75 14.8994C34.75 12.3859 33.2171 10.2326 31.0362 9.31941C30.962 9.28836 30.9073 9.22354 30.8892 9.14522C30.0501 5.52281 26.8046 2.82323 22.9271 2.82323C21.6677 2.82323 20.4736 3.10873 19.4072 3.6184C19.3126 3.6636 19.1999 3.645 19.1248 3.57182C17.6527 2.13617 15.6395 1.25 13.4192 1.25ZM13.4192 3.24219C10.0056 3.24219 7.23832 6.0095 7.23832 9.42317C7.23832 9.51417 7.24068 9.60718 7.24497 9.70308C7.27144 10.2945 6.87818 10.8228 6.30409 10.9672C4.544 11.41 3.24219 13.004 3.24219 14.8994C3.24219 17.1389 5.05772 18.9544 7.29724 18.9544H28.7028C30.9423 18.9544 32.7578 17.1389 32.7578 14.8994C32.7578 13.0772 31.5548 11.533 29.8967 11.023C29.4417 10.883 29.1062 10.4961 29.0321 10.0258C28.5672 7.07358 26.0099 4.81542 22.9271 4.81542C21.7584 4.81542 20.669 5.13881 19.7389 5.70018C19.2147 6.01659 18.5382 5.90525 18.1431 5.43751C17.0072 4.0929 15.3132 3.24219 13.4192 3.24219ZM6.73832 9.42317C6.73832 5.73337 9.72945 2.74219 13.4192 2.74219C15.4666 2.74219 17.2982 3.66259 18.525 5.11484C18.7616 5.39489 19.1666 5.46156 19.4805 5.27211C20.4863 4.66502 21.6648 4.31542 22.9271 4.31542C26.2597 4.31542 29.0234 6.75638 29.526 9.94802C29.5704 10.2296 29.7713 10.4613 30.0437 10.5451C31.9059 11.1178 33.2578 12.8517 33.2578 14.8994C33.2578 17.415 31.2185 19.4544 28.7028 19.4544H7.29724C4.78158 19.4544 2.74219 17.415 2.74219 14.8994C2.74219 12.7696 4.20496 10.9797 6.18212 10.4823C6.52586 10.3959 6.76132 10.0795 6.74547 9.72543C6.74091 9.62336 6.73832 9.5228 6.73832 9.42317Z" fill="#4566D4"/>
<path fill-rule="evenodd" clip-rule="evenodd" d="M18.0005 30.8203C17.3962 30.8203 16.9063 31.3102 16.9063 31.9146C16.9063 32.5189 17.3962 33.0088 18.0005 33.0088C18.6048 33.0088 19.0947 32.5189 19.0947 31.9146C19.0947 31.3102 18.6048 30.8203 18.0005 30.8203ZM14.9141 31.9146C14.9141 30.21 16.2959 28.8281 18.0005 28.8281C19.7051 28.8281 21.0869 30.21 21.0869 31.9146C21.0869 33.6191 19.7051 35.001 18.0005 35.001C16.2959 35.001 14.9141 33.6191 14.9141 31.9146Z" fill="#4566D4"/>
<path fill-rule="evenodd" clip-rule="evenodd" d="M14.6641 31.9146C14.6641 30.0719 16.1578 28.5781 18.0005 28.5781C19.8432 28.5781 21.3369 30.0719 21.3369 31.9146C21.3369 33.7572 19.8432 35.251 18.0005 35.251C16.1578 35.251 14.6641 33.7572 14.6641 31.9146ZM18.0005 29.0781C16.434 29.0781 15.1641 30.348 15.1641 31.9146C15.1641 33.4811 16.434 34.751 18.0005 34.751C19.567 34.751 20.8369 33.4811 20.8369 31.9146C20.8369 30.348 19.567 29.0781 18.0005 29.0781ZM18.0005 31.0703C17.5342 31.0703 17.1563 31.4483 17.1563 31.9146C17.1563 32.3808 17.5342 32.7588 18.0005 32.7588C18.4668 32.7588 18.8447 32.3808 18.8447 31.9146C18.8447 31.4483 18.4668 31.0703 18.0005 31.0703ZM16.6563 31.9146C16.6563 31.1722 17.2581 30.5703 18.0005 30.5703C18.7429 30.5703 19.3447 31.1722 19.3447 31.9146C19.3447 32.657 18.7429 33.2588 18.0005 33.2588C17.2581 33.2588 16.6563 32.657 16.6563 31.9146Z" fill="#4566D4"/>
<path fill-rule="evenodd" clip-rule="evenodd" d="M18 19.2031C18.5501 19.2031 18.9961 19.6491 18.9961 20.1992V29.822C18.9961 30.3721 18.5501 30.818 18 30.818C17.4499 30.818 17.0039 30.3721 17.0039 29.822V20.1992C17.0039 19.6491 17.4499 19.2031 18 19.2031Z" fill="#4566D4"/>
<path fill-rule="evenodd" clip-rule="evenodd" d="M16.7539 20.1992C16.7539 19.511 17.3118 18.9531 18 18.9531C18.6882 18.9531 19.2461 19.511 19.2461 20.1992V29.822C19.2461 30.5102 18.6882 31.068 18 31.068C17.3118 31.068 16.7539 30.5102 16.7539 29.822V20.1992ZM18 19.4531C17.5879 19.4531 17.2539 19.7872 17.2539 20.1992V29.822C17.2539 30.234 17.5879 30.568 18 30.568C18.4121 30.568 18.7461 30.234 18.7461 29.822V20.1992C18.7461 19.7872 18.4121 19.4531 18 19.4531Z" fill="#4566D4"/>
<path fill-rule="evenodd" clip-rule="evenodd" d="M6.78956 29.5625C6.18522 29.5625 5.69531 30.0524 5.69531 30.6567C5.69531 31.2611 6.18522 31.751 6.78956 31.751C7.39389 31.751 7.8838 31.2611 7.8838 30.6567C7.8838 30.0524 7.39389 29.5625 6.78956 29.5625ZM3.70312 30.6567C3.70312 28.9522 5.08497 27.5703 6.78956 27.5703C8.49414 27.5703 9.87599 28.9522 9.87599 30.6567C9.87599 32.3613 8.49414 33.7432 6.78956 33.7432C5.08497 33.7432 3.70312 32.3613 3.70312 30.6567Z" fill="#4566D4"/>
<path fill-rule="evenodd" clip-rule="evenodd" d="M3.45312 30.6567C3.45312 28.8141 4.9469 27.3203 6.78956 27.3203C8.63222 27.3203 10.126 28.8141 10.126 30.6567C10.126 32.4994 8.63222 33.9932 6.78956 33.9932C4.9469 33.9932 3.45312 32.4994 3.45312 30.6567ZM6.78956 27.8203C5.22304 27.8203 3.95312 29.0902 3.95312 30.6567C3.95312 32.2233 5.22304 33.4932 6.78956 33.4932C8.35607 33.4932 9.62599 32.2233 9.62599 30.6567C9.62599 29.0902 8.35607 27.8203 6.78956 27.8203ZM6.78956 29.8125C6.32329 29.8125 5.94531 30.1905 5.94531 30.6567C5.94531 31.123 6.32329 31.501 6.78956 31.501C7.25582 31.501 7.6338 31.123 7.6338 30.6567C7.6338 30.1905 7.25582 29.8125 6.78956 29.8125ZM5.44531 30.6567C5.44531 29.9143 6.04715 29.3125 6.78956 29.3125C7.53196 29.3125 8.1338 29.9143 8.1338 30.6567C8.1338 31.3991 7.53196 32.001 6.78956 32.001C6.04715 32.001 5.44531 31.3991 5.44531 30.6567Z" fill="#4566D4"/>
<path fill-rule="evenodd" clip-rule="evenodd" d="M12.9929 19.2031C13.5431 19.2031 13.989 19.6491 13.989 20.1992V25.3826C13.989 25.9328 13.5431 26.3787 12.9929 26.3787H7.78516V28.5662C7.78516 29.1163 7.33919 29.5623 6.78906 29.5623C6.23894 29.5623 5.79297 29.1163 5.79297 28.5662V25.3826C5.79297 24.8325 6.23894 24.3865 6.78906 24.3865H11.9968V20.1992C11.9968 19.6491 12.4428 19.2031 12.9929 19.2031Z" fill="#4566D4"/>
<path fill-rule="evenodd" clip-rule="evenodd" d="M11.7468 20.1992C11.7468 19.511 12.3047 18.9531 12.9929 18.9531C13.6811 18.9531 14.239 19.511 14.239 20.1992V25.3826C14.239 26.0708 13.6811 26.6287 12.9929 26.6287H8.03516V28.5662C8.03516 29.2544 7.47726 29.8123 6.78906 29.8123C6.10086 29.8123 5.54297 29.2544 5.54297 28.5662V25.3826C5.54297 24.6944 6.10086 24.1365 6.78906 24.1365H11.7468V20.1992ZM12.9929 19.4531C12.5809 19.4531 12.2468 19.7872 12.2468 20.1992V24.3865C12.2468 24.5246 12.1349 24.6365 11.9968 24.6365H6.78906C6.37701 24.6365 6.04297 24.9706 6.04297 25.3826V28.5662C6.04297 28.9783 6.37701 29.3123 6.78906 29.3123C7.20112 29.3123 7.53516 28.9783 7.53516 28.5662V26.3787C7.53516 26.2406 7.64709 26.1287 7.78516 26.1287H12.9929C13.405 26.1287 13.739 25.7947 13.739 25.3826V20.1992C13.739 19.7872 13.405 19.4531 12.9929 19.4531Z" fill="#4566D4"/>
<path fill-rule="evenodd" clip-rule="evenodd" d="M29.2114 29.5625C28.6071 29.5625 28.1172 30.0524 28.1172 30.6567C28.1172 31.2611 28.6071 31.751 29.2114 31.751C29.8158 31.751 30.3057 31.2611 30.3057 30.6567C30.3057 30.0524 29.8158 29.5625 29.2114 29.5625ZM26.125 30.6567C26.125 28.9522 27.5068 27.5703 29.2114 27.5703C30.916 27.5703 32.2979 28.9522 32.2979 30.6567C32.2979 32.3613 30.916 33.7432 29.2114 33.7432C27.5068 33.7432 26.125 32.3613 26.125 30.6567Z" fill="#4566D4"/>
<path fill-rule="evenodd" clip-rule="evenodd" d="M25.875 30.6567C25.875 28.8141 27.3688 27.3203 29.2114 27.3203C31.0541 27.3203 32.5479 28.8141 32.5479 30.6567C32.5479 32.4994 31.0541 33.9932 29.2114 33.9932C27.3688 33.9932 25.875 32.4994 25.875 30.6567ZM29.2114 27.8203C27.6449 27.8203 26.375 29.0902 26.375 30.6567C26.375 32.2233 27.6449 33.4932 29.2114 33.4932C30.7779 33.4932 32.0479 32.2233 32.0479 30.6567C32.0479 29.0902 30.7779 27.8203 29.2114 27.8203ZM29.2114 29.8125C28.7452 29.8125 28.3672 30.1905 28.3672 30.6567C28.3672 31.123 28.7452 31.501 29.2114 31.501C29.6777 31.501 30.0557 31.123 30.0557 30.6567C30.0557 30.1905 29.6777 29.8125 29.2114 29.8125ZM27.8672 30.6567C27.8672 29.9143 28.469 29.3125 29.2114 29.3125C29.9538 29.3125 30.5557 29.9143 30.5557 30.6567C30.5557 31.3991 29.9538 32.001 29.2114 32.001C28.469 32.001 27.8672 31.3991 27.8672 30.6567Z" fill="#4566D4"/>
<path fill-rule="evenodd" clip-rule="evenodd" d="M23.0078 19.2031C23.5579 19.2031 24.0039 19.6491 24.0039 20.1992V24.3865H29.2117C29.7618 24.3865 30.2078 24.8325 30.2078 25.3826V28.5662C30.2078 29.1163 29.7618 29.5623 29.2117 29.5623C28.6616 29.5623 28.2156 29.1163 28.2156 28.5662V26.3787H23.0078C22.4577 26.3787 22.0117 25.9328 22.0117 25.3826V20.1992C22.0117 19.6491 22.4577 19.2031 23.0078 19.2031Z" fill="#4566D4"/>
<path fill-rule="evenodd" clip-rule="evenodd" d="M21.7617 20.1992C21.7617 19.511 22.3196 18.9531 23.0078 18.9531C23.696 18.9531 24.2539 19.511 24.2539 20.1992V24.1365H29.2117C29.8999 24.1365 30.4578 24.6944 30.4578 25.3826V28.5662C30.4578 29.2544 29.8999 29.8123 29.2117 29.8123C28.5235 29.8123 27.9656 29.2544 27.9656 28.5662V26.6287H23.0078C22.3196 26.6287 21.7617 26.0708 21.7617 25.3826V20.1992ZM23.0078 19.4531C22.5958 19.4531 22.2617 19.7872 22.2617 20.1992V25.3826C22.2617 25.7947 22.5958 26.1287 23.0078 26.1287H28.2156C28.3537 26.1287 28.4656 26.2406 28.4656 26.3787V28.5662C28.4656 28.9783 28.7996 29.3123 29.2117 29.3123C29.6237 29.3123 29.9578 28.9783 29.9578 28.5662V25.3826C29.9578 24.9706 29.6237 24.6365 29.2117 24.6365H24.0039C23.8658 24.6365 23.7539 24.5246 23.7539 24.3865V20.1992C23.7539 19.7872 23.4199 19.4531 23.0078 19.4531Z" fill="#4566D4"/>
</svg>
