<svg width="36" height="36" viewBox="0 0 36 36" fill="none" xmlns="http://www.w3.org/2000/svg">
<path fill-rule="evenodd" clip-rule="evenodd" d="M3.98828 2.99219C3.43812 2.99219 2.99219 3.43812 2.99219 3.98828V22.3164H33.0078V3.98828C33.0078 3.43812 32.5619 2.99219 32.0117 2.99219H3.98828ZM1 3.98828C1 2.33787 2.33787 1 3.98828 1H32.0117C33.6621 1 35 2.33787 35 3.98828V23.3125C35 23.8626 34.554 24.3086 34.0039 24.3086H1.99609C1.44597 24.3086 1 23.8626 1 23.3125V3.98828Z" fill="#4566D4"/>
<path fill-rule="evenodd" clip-rule="evenodd" d="M0.75 3.98828C0.75 2.1998 2.1998 0.75 3.98828 0.75H32.0117C33.8002 0.75 35.25 2.1998 35.25 3.98828V23.3125C35.25 24.0007 34.6921 24.5586 34.0039 24.5586H1.99609C1.3079 24.5586 0.75 24.0007 0.75 23.3125V3.98828ZM3.98828 1.25C2.47594 1.25 1.25 2.47594 1.25 3.98828V23.3125C1.25 23.7246 1.58404 24.0586 1.99609 24.0586H34.0039C34.416 24.0586 34.75 23.7246 34.75 23.3125V3.98828C34.75 2.47594 33.5241 1.25 32.0117 1.25H3.98828ZM3.98828 3.24219C3.57619 3.24219 3.24219 3.57619 3.24219 3.98828V22.0664H32.7578V3.98828C32.7578 3.57619 32.4238 3.24219 32.0117 3.24219H3.98828ZM2.74219 3.98828C2.74219 3.30005 3.30005 2.74219 3.98828 2.74219H32.0117C32.6999 2.74219 33.2578 3.30005 33.2578 3.98828V22.3164C33.2578 22.4545 33.1459 22.5664 33.0078 22.5664H2.99219C2.85412 22.5664 2.74219 22.4545 2.74219 22.3164V3.98828Z" fill="#4566D4"/>
<path fill-rule="evenodd" clip-rule="evenodd" d="M1 23.3125C1 22.7624 1.44597 22.3164 1.99609 22.3164H34.0039C34.554 22.3164 35 22.7624 35 23.3125V26.6328C35 28.2832 33.6621 29.6211 32.0117 29.6211H3.98828C2.33787 29.6211 1 28.2832 1 26.6328V23.3125ZM2.99219 24.3086V26.6328C2.99219 27.183 3.43812 27.6289 3.98828 27.6289H32.0117C32.5619 27.6289 33.0078 27.183 33.0078 26.6328V24.3086H2.99219Z" fill="#4566D4"/>
<path fill-rule="evenodd" clip-rule="evenodd" d="M0.75 23.3125C0.75 22.6243 1.3079 22.0664 1.99609 22.0664H34.0039C34.6921 22.0664 35.25 22.6243 35.25 23.3125V26.6328C35.25 28.4213 33.8002 29.8711 32.0117 29.8711H3.98828C2.1998 29.8711 0.75 28.4213 0.75 26.6328V23.3125ZM1.99609 22.5664C1.58404 22.5664 1.25 22.9004 1.25 23.3125V26.6328C1.25 28.1452 2.47594 29.3711 3.98828 29.3711H32.0117C33.5241 29.3711 34.75 28.1452 34.75 26.6328V23.3125C34.75 22.9004 34.416 22.5664 34.0039 22.5664H1.99609ZM2.74219 24.3086C2.74219 24.1705 2.85412 24.0586 2.99219 24.0586H33.0078C33.1459 24.0586 33.2578 24.1705 33.2578 24.3086V26.6328C33.2578 27.321 32.6999 27.8789 32.0117 27.8789H3.98828C3.30005 27.8789 2.74219 27.321 2.74219 26.6328V24.3086ZM3.24219 24.5586V26.6328C3.24219 27.0449 3.57619 27.3789 3.98828 27.3789H32.0117C32.4238 27.3789 32.7578 27.0449 32.7578 26.6328V24.5586H3.24219Z" fill="#4566D4"/>
<path fill-rule="evenodd" clip-rule="evenodd" d="M13.2852 28.625C13.2852 28.0749 13.7311 27.6289 14.2812 27.6289H21.7188C22.2689 27.6289 22.7148 28.0749 22.7148 28.625V34.0039C22.7148 34.554 22.2689 35 21.7188 35H14.2812C13.7311 35 13.2852 34.554 13.2852 34.0039V28.625ZM15.2773 29.6211V33.0078H20.7227V29.6211H15.2773Z" fill="#4566D4"/>
<path fill-rule="evenodd" clip-rule="evenodd" d="M13.0352 28.625C13.0352 27.9368 13.5931 27.3789 14.2812 27.3789H21.7188C22.4069 27.3789 22.9648 27.9368 22.9648 28.625V34.0039C22.9648 34.6921 22.4069 35.25 21.7188 35.25H14.2812C13.5931 35.25 13.0352 34.6921 13.0352 34.0039V28.625ZM14.2812 27.8789C13.8692 27.8789 13.5352 28.2129 13.5352 28.625V34.0039C13.5352 34.416 13.8692 34.75 14.2812 34.75H21.7188C22.1308 34.75 22.4648 34.416 22.4648 34.0039V28.625C22.4648 28.2129 22.1308 27.8789 21.7188 27.8789H14.2812ZM15.0273 29.6211C15.0273 29.483 15.1393 29.3711 15.2773 29.3711H20.7227C20.8607 29.3711 20.9727 29.483 20.9727 29.6211V33.0078C20.9727 33.1459 20.8607 33.2578 20.7227 33.2578H15.2773C15.1393 33.2578 15.0273 33.1459 15.0273 33.0078V29.6211ZM15.5273 29.8711V32.7578H20.4727V29.8711H15.5273Z" fill="#4566D4"/>
<path fill-rule="evenodd" clip-rule="evenodd" d="M10.6289 34.0039C10.6289 33.4538 11.0749 33.0078 11.625 33.0078H24.375C24.9251 33.0078 25.3711 33.4538 25.3711 34.0039C25.3711 34.554 24.9251 35 24.375 35H11.625C11.0749 35 10.6289 34.554 10.6289 34.0039Z" fill="#4566D4"/>
<path fill-rule="evenodd" clip-rule="evenodd" d="M10.3789 34.0039C10.3789 33.3157 10.9368 32.7578 11.625 32.7578H24.375C25.0632 32.7578 25.6211 33.3157 25.6211 34.0039C25.6211 34.6921 25.0632 35.25 24.375 35.25H11.625C10.9368 35.25 10.3789 34.6921 10.3789 34.0039ZM11.625 33.2578C11.2129 33.2578 10.8789 33.5919 10.8789 34.0039C10.8789 34.416 11.2129 34.75 11.625 34.75H24.375C24.7871 34.75 25.1211 34.416 25.1211 34.0039C25.1211 33.5919 24.7871 33.2578 24.375 33.2578H11.625Z" fill="#4566D4"/>
<path fill-rule="evenodd" clip-rule="evenodd" d="M15.8816 6.05221C16.1672 6.2354 16.3398 6.55135 16.3398 6.89063V12.0128L18 12.6769L19.6602 12.0128V6.89063C19.6602 6.55135 19.8328 6.2354 20.1184 6.05221C20.404 5.86902 20.7632 5.84378 21.0716 5.98524C23.6072 7.14836 25.3711 9.71124 25.3711 12.6872C25.3711 15.4305 23.8724 17.8219 21.6523 19.0907V23.3122C21.6523 23.8624 21.2064 24.3083 20.6562 24.3083H15.3438C14.7936 24.3083 14.3477 23.8624 14.3477 23.3122V19.0907C12.1276 17.8219 10.6289 15.4305 10.6289 12.6872C10.6289 9.71124 12.3928 7.14836 14.9284 5.98524C15.2368 5.84378 15.596 5.86902 15.8816 6.05221ZM14.3477 8.73822C13.2852 9.72125 12.6211 11.1273 12.6211 12.6872C12.6211 14.8562 13.9052 16.7275 15.7593 17.5785C16.1131 17.7409 16.3398 18.0946 16.3398 18.4838V22.3161H19.6602V18.4838C19.6602 18.0946 19.8869 17.7409 20.2407 17.5785C22.0948 16.7275 23.3789 14.8562 23.3789 12.6872C23.3789 11.1273 22.7148 9.72125 21.6523 8.73822V12.6872C21.6523 13.0945 21.4044 13.4608 21.0262 13.6121L18.3699 14.6746C18.1325 14.7696 17.8675 14.7696 17.6301 14.6746L14.9738 13.6121C14.5956 13.4608 14.3477 13.0945 14.3477 12.6872V8.73822Z" fill="#4566D4"/>
<path fill-rule="evenodd" clip-rule="evenodd" d="M14.8242 5.758C15.21 5.58105 15.6593 5.61262 16.0166 5.84179C16.3738 6.07095 16.5898 6.4662 16.5898 6.89063V11.8436L18 12.4076L19.4102 11.8436V6.89063C19.4102 6.4662 19.6262 6.07095 19.9834 5.84179C20.3407 5.61262 20.79 5.58105 21.1758 5.758C23.797 6.96035 25.6211 9.60992 25.6211 12.6872C25.6211 15.4717 24.1276 17.9051 21.9023 19.2342V23.3122C21.9023 24.0004 21.3444 24.5583 20.6562 24.5583H15.3438C14.6556 24.5583 14.0977 24.0004 14.0977 23.3122V19.2342C11.8724 17.9051 10.3789 15.4717 10.3789 12.6872C10.3789 9.60992 12.203 6.96035 14.8242 5.758ZM15.7466 6.26264C15.5327 6.12543 15.2637 6.10652 15.0327 6.21247C12.5825 7.33637 10.8789 9.81255 10.8789 12.6872C10.8789 15.3371 12.3263 17.6475 14.4717 18.8736C14.5496 18.9182 14.5977 19.001 14.5977 19.0907V23.3122C14.5977 23.7243 14.9317 24.0583 15.3438 24.0583H20.6562C21.0683 24.0583 21.4023 23.7243 21.4023 23.3122V19.0907C21.4023 19.001 21.4504 18.9182 21.5283 18.8736C23.6737 17.6475 25.1211 15.3371 25.1211 12.6872C25.1211 9.81255 23.4175 7.33637 20.9673 6.21247C20.7363 6.10652 20.4673 6.12543 20.2534 6.26264C20.0395 6.39985 19.9102 6.6365 19.9102 6.89063V12.0128C19.9102 12.1151 19.8479 12.207 19.753 12.245L18.0928 12.909C18.0332 12.9329 17.9668 12.9329 17.9072 12.909L16.247 12.245C16.1521 12.207 16.0898 12.1151 16.0898 12.0128V6.89063C16.0898 6.6365 15.9605 6.39985 15.7466 6.26264L15.8813 6.05267L15.7466 6.26264ZM14.4478 8.50915C14.5388 8.54894 14.5977 8.63887 14.5977 8.73822V12.6872C14.5977 12.9923 14.7834 13.2667 15.0667 13.38L17.7229 14.4425C17.9008 14.5136 18.0992 14.5136 18.2771 14.4425L20.9333 13.38C21.2166 13.2667 21.4023 12.9923 21.4023 12.6872V8.73822C21.4023 8.63887 21.4612 8.54894 21.5522 8.50915C21.6432 8.46935 21.7492 8.48724 21.8221 8.55472C22.9336 9.58313 23.6289 11.0549 23.6289 12.6872C23.6289 14.9574 22.2847 16.9154 20.345 17.8058C20.08 17.9274 19.9102 18.1923 19.9102 18.4838V22.3161C19.9102 22.4542 19.7982 22.5661 19.6602 22.5661H16.3398C16.2018 22.5661 16.0898 22.4542 16.0898 22.3161V18.4838C16.0898 18.1923 15.92 17.9274 15.655 17.8058C13.7153 16.9154 12.3711 14.9574 12.3711 12.6872C12.3711 11.0549 13.0664 9.58313 14.1779 8.55472C14.2508 8.48724 14.3568 8.46935 14.4478 8.50915ZM14.0977 9.35858C13.3323 10.255 12.8711 11.4175 12.8711 12.6872C12.8711 14.755 14.095 16.5396 15.8636 17.3513C16.3062 17.5545 16.5898 17.9968 16.5898 18.4838V22.0661H19.4102V18.4838C19.4102 17.9968 19.6938 17.5545 20.1364 17.3513C21.905 16.5396 23.1289 14.755 23.1289 12.6872C23.1289 11.4175 22.6677 10.255 21.9023 9.35858V12.6872C21.9023 13.1968 21.5921 13.655 21.119 13.8442L18.4628 14.9067C18.1657 15.0255 17.8343 15.0255 17.5372 14.9067L14.881 13.8442C14.4079 13.655 14.0977 13.1968 14.0977 12.6872V9.35858Z" fill="#4566D4"/>
<path fill-rule="evenodd" clip-rule="evenodd" d="M5.31641 13.2188C5.31641 12.6686 5.76237 12.2227 6.3125 12.2227H7.375C7.92513 12.2227 8.37109 12.6686 8.37109 13.2188C8.37109 13.7689 7.92513 14.2148 7.375 14.2148H6.3125C5.76237 14.2148 5.31641 13.7689 5.31641 13.2188Z" fill="#4566D4"/>
<path fill-rule="evenodd" clip-rule="evenodd" d="M5.06641 13.2188C5.06641 12.5306 5.6243 11.9727 6.3125 11.9727H7.375C8.0632 11.9727 8.62109 12.5306 8.62109 13.2188C8.62109 13.9069 8.0632 14.4648 7.375 14.4648H6.3125C5.6243 14.4648 5.06641 13.9069 5.06641 13.2188ZM6.3125 12.4727C5.90044 12.4727 5.56641 12.8067 5.56641 13.2188C5.56641 13.6308 5.90044 13.9648 6.3125 13.9648H7.375C7.78706 13.9648 8.12109 13.6308 8.12109 13.2188C8.12109 12.8067 7.78706 12.4727 7.375 12.4727H6.3125Z" fill="#4566D4"/>
<path fill-rule="evenodd" clip-rule="evenodd" d="M27.6289 13.2188C27.6289 12.6686 28.0749 12.2227 28.625 12.2227H29.6875C30.2376 12.2227 30.6836 12.6686 30.6836 13.2188C30.6836 13.7689 30.2376 14.2148 29.6875 14.2148H28.625C28.0749 14.2148 27.6289 13.7689 27.6289 13.2188Z" fill="#4566D4"/>
<path fill-rule="evenodd" clip-rule="evenodd" d="M27.3789 13.2188C27.3789 12.5306 27.9368 11.9727 28.625 11.9727H29.6875C30.3757 11.9727 30.9336 12.5306 30.9336 13.2188C30.9336 13.9069 30.3757 14.4648 29.6875 14.4648H28.625C27.9368 14.4648 27.3789 13.9069 27.3789 13.2188ZM28.625 12.4727C28.2129 12.4727 27.8789 12.8067 27.8789 13.2188C27.8789 13.6308 28.2129 13.9648 28.625 13.9648H29.6875C30.0996 13.9648 30.4336 13.6308 30.4336 13.2188C30.4336 12.8067 30.0996 12.4727 29.6875 12.4727H28.625Z" fill="#4566D4"/>
</svg>
