<svg width="36" height="36" viewBox="0 0 36 36" fill="none" xmlns="http://www.w3.org/2000/svg">
<path fill-rule="evenodd" clip-rule="evenodd" d="M3.98828 2.99219C3.43812 2.99219 2.99219 3.43812 2.99219 3.98828V22.3164H33.0078V3.98828C33.0078 3.43812 32.5619 2.99219 32.0117 2.99219H3.98828ZM1 3.98828C1 2.33787 2.33787 1 3.98828 1H32.0117C33.6621 1 35 2.33787 35 3.98828V23.3125C35 23.8626 34.554 24.3086 34.0039 24.3086H1.99609C1.44597 24.3086 1 23.8626 1 23.3125V3.98828Z" fill="#4566D4"/>
<path fill-rule="evenodd" clip-rule="evenodd" d="M0.75 3.98828C0.75 2.1998 2.1998 0.75 3.98828 0.75H32.0117C33.8002 0.75 35.25 2.1998 35.25 3.98828V23.3125C35.25 24.0007 34.6921 24.5586 34.0039 24.5586H1.99609C1.3079 24.5586 0.75 24.0007 0.75 23.3125V3.98828ZM3.98828 1.25C2.47594 1.25 1.25 2.47594 1.25 3.98828V23.3125C1.25 23.7246 1.58404 24.0586 1.99609 24.0586H34.0039C34.416 24.0586 34.75 23.7246 34.75 23.3125V3.98828C34.75 2.47594 33.5241 1.25 32.0117 1.25H3.98828ZM3.98828 3.24219C3.57619 3.24219 3.24219 3.57619 3.24219 3.98828V22.0664H32.7578V3.98828C32.7578 3.57619 32.4238 3.24219 32.0117 3.24219H3.98828ZM2.74219 3.98828C2.74219 3.30005 3.30005 2.74219 3.98828 2.74219H32.0117C32.6999 2.74219 33.2578 3.30005 33.2578 3.98828V22.3164C33.2578 22.4545 33.1459 22.5664 33.0078 22.5664H2.99219C2.85412 22.5664 2.74219 22.4545 2.74219 22.3164V3.98828Z" fill="#4566D4"/>
<path fill-rule="evenodd" clip-rule="evenodd" d="M1 23.3125C1 22.7624 1.44597 22.3164 1.99609 22.3164H34.0039C34.554 22.3164 35 22.7624 35 23.3125V26.6328C35 28.2832 33.6621 29.6211 32.0117 29.6211H3.98828C2.33787 29.6211 1 28.2832 1 26.6328V23.3125ZM2.99219 24.3086V26.6328C2.99219 27.183 3.43812 27.6289 3.98828 27.6289H32.0117C32.5619 27.6289 33.0078 27.183 33.0078 26.6328V24.3086H2.99219Z" fill="#4566D4"/>
<path fill-rule="evenodd" clip-rule="evenodd" d="M0.75 23.3125C0.75 22.6243 1.3079 22.0664 1.99609 22.0664H34.0039C34.6921 22.0664 35.25 22.6243 35.25 23.3125V26.6328C35.25 28.4213 33.8002 29.8711 32.0117 29.8711H3.98828C2.1998 29.8711 0.75 28.4213 0.75 26.6328V23.3125ZM1.99609 22.5664C1.58404 22.5664 1.25 22.9004 1.25 23.3125V26.6328C1.25 28.1452 2.47594 29.3711 3.98828 29.3711H32.0117C33.5241 29.3711 34.75 28.1452 34.75 26.6328V23.3125C34.75 22.9004 34.416 22.5664 34.0039 22.5664H1.99609ZM2.74219 24.3086C2.74219 24.1705 2.85412 24.0586 2.99219 24.0586H33.0078C33.1459 24.0586 33.2578 24.1705 33.2578 24.3086V26.6328C33.2578 27.321 32.6999 27.8789 32.0117 27.8789H3.98828C3.30005 27.8789 2.74219 27.321 2.74219 26.6328V24.3086ZM3.24219 24.5586V26.6328C3.24219 27.0449 3.57619 27.3789 3.98828 27.3789H32.0117C32.4238 27.3789 32.7578 27.0449 32.7578 26.6328V24.5586H3.24219Z" fill="#4566D4"/>
<path fill-rule="evenodd" clip-rule="evenodd" d="M13.2852 28.625C13.2852 28.0749 13.7311 27.6289 14.2812 27.6289H21.7188C22.2689 27.6289 22.7148 28.0749 22.7148 28.625V34.0039C22.7148 34.554 22.2689 35 21.7188 35H14.2812C13.7311 35 13.2852 34.554 13.2852 34.0039V28.625ZM15.2773 29.6211V33.0078H20.7227V29.6211H15.2773Z" fill="#4566D4"/>
<path fill-rule="evenodd" clip-rule="evenodd" d="M13.0352 28.625C13.0352 27.9368 13.5931 27.3789 14.2812 27.3789H21.7188C22.4069 27.3789 22.9648 27.9368 22.9648 28.625V34.0039C22.9648 34.6921 22.4069 35.25 21.7188 35.25H14.2812C13.5931 35.25 13.0352 34.6921 13.0352 34.0039V28.625ZM14.2812 27.8789C13.8692 27.8789 13.5352 28.2129 13.5352 28.625V34.0039C13.5352 34.416 13.8692 34.75 14.2812 34.75H21.7188C22.1308 34.75 22.4648 34.416 22.4648 34.0039V28.625C22.4648 28.2129 22.1308 27.8789 21.7188 27.8789H14.2812ZM15.0273 29.6211C15.0273 29.483 15.1393 29.3711 15.2773 29.3711H20.7227C20.8607 29.3711 20.9727 29.483 20.9727 29.6211V33.0078C20.9727 33.1459 20.8607 33.2578 20.7227 33.2578H15.2773C15.1393 33.2578 15.0273 33.1459 15.0273 33.0078V29.6211ZM15.5273 29.8711V32.7578H20.4727V29.8711H15.5273Z" fill="#4566D4"/>
<path fill-rule="evenodd" clip-rule="evenodd" d="M10.6289 34.0039C10.6289 33.4538 11.0749 33.0078 11.625 33.0078H24.375C24.9251 33.0078 25.3711 33.4538 25.3711 34.0039C25.3711 34.554 24.9251 35 24.375 35H11.625C11.0749 35 10.6289 34.554 10.6289 34.0039Z" fill="#4566D4"/>
<path fill-rule="evenodd" clip-rule="evenodd" d="M10.3789 34.0039C10.3789 33.3157 10.9368 32.7578 11.625 32.7578H24.375C25.0632 32.7578 25.6211 33.3157 25.6211 34.0039C25.6211 34.6921 25.0632 35.25 24.375 35.25H11.625C10.9368 35.25 10.3789 34.6921 10.3789 34.0039ZM11.625 33.2578C11.2129 33.2578 10.8789 33.5919 10.8789 34.0039C10.8789 34.416 11.2129 34.75 11.625 34.75H24.375C24.7871 34.75 25.1211 34.416 25.1211 34.0039C25.1211 33.5919 24.7871 33.2578 24.375 33.2578H11.625Z" fill="#4566D4"/>
<path fill-rule="evenodd" clip-rule="evenodd" d="M6.92952 7.85938C7.4415 7.85938 7.85904 7.44183 7.85904 6.92985C7.85904 6.41787 7.4415 6.00033 6.92952 6.00033C6.41754 6.00033 6 6.41787 6 6.92985C6 7.44183 6.41754 7.85938 6.92952 7.85938Z" fill="#4566D4"/>
<path fill-rule="evenodd" clip-rule="evenodd" d="M6.92952 11.5781C7.4415 11.5781 7.85904 11.1605 7.85904 10.6486C7.85904 10.1366 7.4415 9.71908 6.92952 9.71908C6.41754 9.71908 6 10.1366 6 10.6486C6 11.1605 6.41754 11.5781 6.92952 11.5781Z" fill="#4566D4"/>
<path fill-rule="evenodd" clip-rule="evenodd" d="M6.92952 15.2969C7.4415 15.2969 7.85904 14.8793 7.85904 14.3674C7.85904 13.8554 7.4415 13.4378 6.92952 13.4378C6.41754 13.4378 6 13.8554 6 14.3674C6 14.8793 6.41754 15.2969 6.92952 15.2969Z" fill="#4566D4"/>
<path fill-rule="evenodd" clip-rule="evenodd" d="M6.92952 19.0156C7.4415 19.0156 7.85904 18.598 7.85904 18.0861C7.85904 17.5741 7.4415 17.1566 6.92952 17.1566C6.41754 17.1566 6 17.5741 6 18.0861C6 18.598 6.41754 19.0156 6.92952 19.0156Z" fill="#4566D4"/>
<path fill-rule="evenodd" clip-rule="evenodd" d="M9.71094 6.92985C9.71094 7.44321 10.1271 7.85938 10.6405 7.85938H14.5444C15.0578 7.85938 15.474 7.44321 15.474 6.92985C15.474 6.41649 15.0578 6.00033 14.5444 6.00033H10.6405C10.1271 6.00033 9.71094 6.41649 9.71094 6.92985Z" fill="#4566D4"/>
<path fill-rule="evenodd" clip-rule="evenodd" d="M9.71094 18.0861C9.71094 18.5995 10.1271 19.0156 10.6405 19.0156H14.5444C15.0578 19.0156 15.474 18.5995 15.474 18.0861C15.474 17.5727 15.0578 17.1566 14.5444 17.1566H10.6405C10.1271 17.1566 9.71094 17.5727 9.71094 18.0861Z" fill="#4566D4"/>
<path fill-rule="evenodd" clip-rule="evenodd" d="M12.1914 10.6486C12.1914 11.162 12.6076 11.5781 13.1209 11.5781H23.4088C23.9222 11.5781 24.3383 11.162 24.3383 10.6486C24.3383 10.1352 23.9222 9.71908 23.4088 9.71908H13.1209C12.6076 9.71908 12.1914 10.1352 12.1914 10.6486Z" fill="#4566D4"/>
<path fill-rule="evenodd" clip-rule="evenodd" d="M12.1914 14.3674C12.1914 14.8807 12.6076 15.2969 13.1209 15.2969H17.4587C17.9721 15.2969 18.3882 14.8807 18.3882 14.3674C18.3882 13.854 17.9721 13.4378 17.4587 13.4378H13.1209C12.6076 13.4378 12.1914 13.854 12.1914 14.3674Z" fill="#4566D4"/>
<path fill-rule="evenodd" clip-rule="evenodd" d="M26.1992 10.6486C26.1992 11.162 26.6154 11.5781 27.1287 11.5781H29.3596C29.873 11.5781 30.2891 11.162 30.2891 10.6486C30.2891 10.1352 29.873 9.71908 29.3596 9.71908H27.1287C26.6154 9.71908 26.1992 10.1352 26.1992 10.6486Z" fill="#4566D4"/>
<path fill-rule="evenodd" clip-rule="evenodd" d="M26.1992 14.3674C26.1992 14.8807 26.6154 15.2969 27.1287 15.2969H29.3596C29.873 15.2969 30.2891 14.8807 30.2891 14.3674C30.2891 13.854 29.873 13.4378 29.3596 13.4378H27.1287C26.6154 13.4378 26.1992 13.854 26.1992 14.3674Z" fill="#4566D4"/>
<path fill-rule="evenodd" clip-rule="evenodd" d="M19.7344 14.3674C19.7344 14.8807 20.1505 15.2969 20.6639 15.2969H23.8759C24.3893 15.2969 24.8055 14.8807 24.8055 14.3674C24.8055 13.854 24.3893 13.4378 23.8759 13.4378H20.6639C20.1505 13.4378 19.7344 13.854 19.7344 14.3674Z" fill="#4566D4"/>
</svg>
