<svg width="50" height="45" viewBox="0 0 50 45" fill="none" xmlns="http://www.w3.org/2000/svg">
<path d="M14 9.40234L36 1.90234V33.4023L14 25.9023V9.40234Z" fill="#F7CF47"/>
<path d="M33.8233 0C31.7728 0 30.0447 1.40625 29.5522 3.30488L12.9966 8.82343H4.41172C1.9791 8.82353 0 10.8026 0 13.2352V22.0587C0 24.4913 1.9791 26.4704 4.41172 26.4704H4.46972L5.97822 40.5757C6.18554 42.5063 8.5582 44.6916 11.3642 43.9858C13.6834 43.4065 15.1144 41.0773 14.6026 38.7558L14.2824 35.2891C14.3132 35.2911 14.3437 35.2938 14.3749 35.2938H16.1763C18.6089 35.2938 20.588 33.3147 20.588 30.8821V29.0009L29.5521 31.989C30.0445 33.8877 31.7726 35.2938 33.8232 35.2938C36.2558 35.2938 38.2349 33.3147 38.2349 30.8821V4.41181C38.235 1.9791 36.2559 0 33.8233 0ZM10.6491 41.1331C9.89746 41.322 9.12314 40.8911 8.89003 40.144L7.42773 26.4705H10.5144C11.7648 40.0103 11.6807 39.1867 11.7208 39.348C11.9174 40.1356 11.4377 40.9361 10.6491 41.1331ZM11.7646 23.5293C10.4604 23.5293 5.34912 23.5293 4.41172 23.5293C3.60088 23.5293 2.94111 22.8696 2.94111 22.0587V13.2352C2.94111 12.4244 3.60078 11.7646 4.41172 11.7646H11.7646V23.5293ZM17.647 30.8822C17.647 31.6931 16.9873 32.3528 16.1764 32.3528H14.375C14.2508 32.3528 14.1308 32.3699 14.0156 32.3989L13.4831 26.6327L17.647 28.0206V30.8822ZM29.4116 28.8419L14.7059 23.9399V11.354L29.4116 6.45205V28.8419ZM35.2939 30.8822C35.2939 31.6931 34.6343 32.3528 33.8233 32.3528C33.0125 32.3528 32.3527 31.6931 32.3527 30.8822V4.41181C32.3527 3.60097 33.0124 2.94121 33.8233 2.94121C34.6342 2.94121 35.2939 3.60088 35.2939 4.41181V30.8822Z" fill="#04144E"/>
<path d="M48.5287 14.7031H42.6464C41.8343 14.7031 41.1758 15.3615 41.1758 16.1737C41.1758 16.9858 41.8342 17.6443 42.6464 17.6443H48.5287C49.3408 17.6443 49.9993 16.9859 49.9993 16.1737C49.9993 15.3615 49.3409 14.7031 48.5287 14.7031Z" fill="#04144E"/>
<path d="M49.8444 6.69605C49.4812 5.96958 48.5977 5.67515 47.8713 6.03843L41.989 8.97954C41.2626 9.34282 40.9681 10.2261 41.3314 10.9526C41.6949 11.6794 42.5784 11.9734 43.3044 11.6102L49.1868 8.66909C49.9132 8.30581 50.2076 7.42251 49.8444 6.69605Z" fill="#04144E"/>
<path d="M49.1867 23.6827L43.3044 20.7416C42.578 20.3783 41.6946 20.6727 41.3313 21.3992C40.9682 22.1256 41.2626 23.0088 41.989 23.3722L47.8713 26.3133C48.5978 26.6767 49.4811 26.382 49.8443 25.6557C50.2075 24.9292 49.9132 24.0459 49.1867 23.6827Z" fill="#04144E"/>
</svg>
