<svg width="471" height="524" viewBox="0 0 471 524" fill="none" xmlns="http://www.w3.org/2000/svg">
<g style="mix-blend-mode:screen" opacity="0.03">
<path d="M-123.923 153.59L-120.502 151.019L-76.543 209.381L-79.5871 230.531L-14.4233 316.953L-17.2227 336.349L8.53575 370.505L27.3446 370.587L131.495 508.699C134.518 507.262 137.969 507.009 141.16 507.992C144.352 508.975 147.05 511.12 148.719 514.002C150.388 516.884 150.904 520.291 150.166 523.545C149.427 526.799 147.488 529.662 144.734 531.563C141.979 533.465 138.612 534.266 135.302 533.808C131.991 533.349 128.98 531.665 126.868 529.089C124.755 526.514 123.696 523.236 123.901 519.908C124.106 516.58 125.561 513.446 127.975 511.13L25.231 374.845L6.40944 374.772L-21.673 337.514L-18.8845 318.116L-84.0136 231.689L-80.9714 210.55L-123.923 153.59ZM129.937 526.104C131.19 527.767 132.985 528.944 135.015 529.433C137.046 529.923 139.187 529.694 141.073 528.788C142.96 527.881 144.475 526.351 145.361 524.459C146.247 522.568 146.448 520.431 145.932 518.414C145.415 516.396 144.212 514.622 142.527 513.395C140.842 512.167 138.78 511.561 136.692 511.681C134.604 511.8 132.619 512.637 131.075 514.05C129.532 515.462 128.525 517.362 128.227 519.426C128.053 520.599 128.114 521.793 128.408 522.939C128.702 524.085 129.221 525.161 129.937 526.104Z" fill="white"/>
<path d="M51.4698 586.53L49.881 620.565L65.6758 641.501L101.008 652.253L122.006 680.089C125.011 678.614 128.458 678.319 131.662 679.261C134.866 680.203 137.591 682.315 139.297 685.175C141.002 688.036 141.562 691.435 140.865 694.698C140.169 697.961 138.266 700.848 135.537 702.785C132.807 704.721 129.45 705.566 126.134 705.15C122.817 704.734 119.785 703.089 117.639 700.541C115.493 697.993 114.391 694.73 114.553 691.4C114.714 688.07 116.127 684.917 118.51 682.569L98.4207 655.927L63.0778 645.173L45.5537 621.863L47.1297 587.837L-148.965 327.767L-145.533 325.198L51.4698 586.53ZM120.596 697.419C121.485 698.605 122.655 699.552 124.002 700.177C125.349 700.802 126.831 701.085 128.317 701.001C129.803 700.918 131.246 700.47 132.52 699.697C133.793 698.925 134.857 697.852 135.616 696.574C136.376 695.296 136.808 693.851 136.874 692.37C136.94 690.888 136.639 689.414 135.996 688.079C135.353 686.744 134.389 685.589 133.189 684.717C131.989 683.845 130.59 683.283 129.117 683.08C127.217 682.811 125.278 683.165 123.591 684.089L121.396 685.742C119.882 687.276 118.969 689.298 118.822 691.441C118.675 693.584 119.304 695.706 120.596 697.419Z" fill="white"/>
<path d="M67.2015 261.141L127.21 340.745L121.076 362.15L145.297 394.217C147.052 393.561 148.982 393.559 150.733 394.211C152.484 394.862 153.937 396.123 154.825 397.761C155.713 399.399 155.976 401.305 155.566 403.126C155.156 404.948 154.1 406.563 152.592 407.674C151.085 408.785 149.228 409.318 147.363 409.174C145.498 409.03 143.75 408.219 142.442 406.89C141.134 405.562 140.354 403.805 140.245 401.943C140.136 400.082 140.705 398.241 141.848 396.759L116.4 362.997L122.535 341.525L63.7984 263.613L67.2015 261.141Z" fill="white"/>
<path d="M206.694 299.274L248.661 354.947C250.389 354.221 252.319 354.14 254.097 354.719C255.874 355.299 257.379 356.5 258.334 358.102C259.289 359.703 259.63 361.597 259.294 363.435C258.958 365.272 257.968 366.929 256.505 368.101C255.043 369.273 253.208 369.88 251.337 369.811C249.466 369.742 247.686 369.001 246.324 367.726C244.963 366.45 244.112 364.725 243.928 362.868C243.744 361.011 244.239 359.148 245.323 357.622L204.335 303.256L183.135 300.308L117.981 213.873L98.5277 211.172L70.4308 173.962L75.5646 155.904L-28.4885 17.8063L-25.0783 15.3006L79.6282 154.113L80.2591 154.958L75.1234 173.027L100.876 207.188L120.329 209.89L185.494 296.326L206.694 299.274Z" fill="white"/>
</g>
<path opacity="0.2" d="M-3.76143 220.383L-40.0606 172.212L-38.0743 170.727L-1.19108 219.691L-4.66216 250.993L41.3408 312.049L37.2765 340.247C39.163 340.73 40.7959 341.902 41.8511 343.531C42.9063 345.16 43.3066 347.127 42.9724 349.041C42.6381 350.955 41.5939 352.676 40.047 353.863C38.5002 355.049 36.5638 355.614 34.6225 355.445C32.6813 355.276 30.8771 354.386 29.5684 352.951C28.2596 351.516 27.542 349.642 27.5581 347.7C27.5741 345.759 28.3226 343.892 29.6549 342.47C30.9873 341.049 32.806 340.177 34.7499 340.027L38.6942 312.661L-7.27971 251.632L-3.76143 220.383ZM32.2597 343.535C31.2928 344.261 30.6073 345.297 30.3201 346.468C30.0329 347.639 30.1618 348.871 30.6847 349.955C31.2077 351.039 32.0924 351.907 33.1881 352.413C34.2837 352.918 35.5225 353.028 36.6934 352.725C37.8643 352.422 38.8949 351.725 39.6094 350.751C40.3239 349.778 40.6781 348.588 40.6119 347.386C40.5455 346.184 40.0628 345.043 39.2458 344.158C38.4288 343.274 37.3282 342.699 36.1314 342.533C34.7603 342.344 33.3681 342.705 32.2597 343.535ZM-28.6938 261.286L17.3091 322.343L13.1587 351.11L49.8806 399.834C51.0978 399.345 52.4206 399.179 53.7193 399.353C54.7292 399.485 55.7017 399.817 56.5797 400.329C57.4577 400.841 58.2235 401.524 58.8319 402.336C60.0415 403.967 60.5571 406.009 60.2674 408.02C59.9777 410.031 58.9059 411.851 57.2834 413.086C55.6774 414.347 53.636 414.923 51.6084 414.687C49.5808 414.451 47.7331 413.421 46.4717 411.825C45.2103 410.229 44.6386 408.198 44.8824 406.177C45.1261 404.157 46.1653 402.313 47.7714 401.051L10.6124 351.727L14.7628 322.96L-31.213 261.942L-27.7325 230.586L-64.0299 182.404L-62.0546 180.918L-25.2134 229.931L-28.6938 261.286ZM48.4305 410.14C48.8388 410.69 49.3541 411.152 49.9457 411.499C50.5373 411.846 51.1932 412.071 51.8746 412.161C52.8985 412.306 53.9434 412.144 54.877 411.697C55.8107 411.25 56.5909 410.537 57.1188 409.649C57.6468 408.761 57.8986 407.738 57.8425 406.709C57.7864 405.68 57.4248 404.692 56.8035 403.87C56.392 403.324 55.8762 402.864 55.2857 402.518C54.6953 402.171 54.0417 401.944 53.3623 401.85C52.6829 401.755 51.9911 401.795 51.3262 401.966C50.6614 402.138 50.0367 402.439 49.4876 402.851C48.9367 403.261 48.4721 403.775 48.1206 404.364C47.7691 404.952 47.5375 405.604 47.4393 406.281C47.3411 406.959 47.3781 407.648 47.5482 408.31C47.7183 408.973 48.0181 409.594 48.4305 410.14ZM62.9947 319.843L18.0873 260.27C18.7322 259.419 19.0477 258.365 18.9757 257.303C18.9037 256.24 18.4491 255.241 17.6954 254.488C16.9417 253.735 15.9397 253.28 14.8735 253.205C13.8074 253.131 12.7489 253.442 11.8926 254.082C11.0363 254.723 10.4398 255.649 10.2129 256.69C9.98595 257.731 10.1438 258.818 10.6574 259.75C11.171 260.683 12.0057 261.398 13.0082 261.764C14.0107 262.131 15.1135 262.124 16.1138 261.745L61.3076 321.747L84.2919 334.382C84.1326 335.394 84.331 336.429 84.8532 337.31C85.3754 338.19 86.1889 338.862 87.1548 339.21C88.1206 339.558 89.1789 339.56 90.1486 339.217C91.1184 338.874 91.9396 338.206 92.4718 337.328C93.0039 336.45 93.2141 335.417 93.0663 334.404C92.9186 333.39 92.422 332.461 91.6616 331.774C90.9012 331.087 89.9242 330.686 88.8973 330.638C87.8705 330.59 86.8576 330.898 86.0319 331.511C85.7811 331.693 85.5526 331.903 85.3511 332.137L62.9947 319.843ZM210.428 343.759C208.918 343.541 207.508 342.884 206.374 341.872C205.239 340.859 204.43 339.535 204.048 338.064L175.845 340.466L123.206 270.612L97.2696 273.313L-37.6445 95.1893L-35.6673 93.692L98.3557 270.714L124.349 268.012L177.006 337.891L203.844 335.643C203.874 335.468 203.902 335.305 203.932 335.13C204.27 333.157 205.368 331.391 206.992 330.208C208.616 329.025 210.637 328.518 212.625 328.796C214.613 329.074 216.412 330.114 217.637 331.695C218.863 333.276 219.42 335.273 219.189 337.261C218.884 339.271 217.798 341.083 216.166 342.306C214.534 343.529 212.487 344.065 210.466 343.799L210.428 343.759ZM215.709 333.015C215.093 332.179 214.238 331.546 213.257 331.198C212.275 330.85 211.21 330.802 210.199 331.061C209.188 331.32 208.276 331.874 207.581 332.651C206.887 333.429 206.44 334.394 206.299 335.425C206.157 336.767 206.543 338.11 207.375 339.172C208.208 340.234 209.422 340.932 210.762 341.119C212.103 341.307 213.466 340.969 214.565 340.177C215.665 339.385 216.414 338.201 216.657 336.873C216.863 335.511 216.522 334.125 215.709 333.015ZM159.859 291.368C160.37 291.085 160.82 290.705 161.184 290.249C161.548 289.794 161.818 289.271 161.98 288.712C162.141 288.153 162.191 287.568 162.125 286.991C162.06 286.413 161.881 285.855 161.599 285.347C161.317 284.839 160.937 284.392 160.48 284.031C160.024 283.67 159.501 283.402 158.94 283.243C158.379 283.084 157.792 283.037 157.212 283.103C156.633 283.17 156.071 283.35 155.56 283.633L128.983 248.372L100.99 250.08L73.2319 213.175C73.8732 212.322 74.1844 211.267 74.1084 210.206C74.0324 209.144 73.5742 208.147 72.818 207.397C72.0619 206.647 71.0587 206.195 69.9926 206.124C68.9266 206.053 67.8694 206.368 67.0154 207.011C66.1614 207.653 65.5679 208.58 65.344 209.622C65.1201 210.664 65.2809 211.75 65.7967 212.68C66.3126 213.611 67.1489 214.324 68.152 214.688C69.155 215.052 70.2574 215.043 71.2566 214.662L99.8655 252.638L127.85 250.918L153.629 285.127C152.874 285.969 152.47 287.066 152.499 288.193C152.528 289.32 152.988 290.391 153.786 291.189C154.583 291.986 155.657 292.449 156.788 292.483C157.919 292.516 159.022 292.118 159.87 291.37L159.859 291.368ZM39.1956 452.44C37.4804 453.374 35.4771 453.631 33.5847 453.16C31.6923 452.69 30.0496 451.525 28.9838 449.9C27.9179 448.274 27.5071 446.306 27.8331 444.388C28.1591 442.47 29.198 440.742 30.743 439.549C32.2879 438.355 34.2255 437.784 36.17 437.948C38.1144 438.113 39.9231 439.001 41.2357 440.436C42.5484 441.871 43.2688 443.747 43.2534 445.692C43.238 447.636 42.488 449.506 41.1527 450.929L56.3046 471.011L52.76 483.434L131.984 588.438L129.998 589.923L50.0408 483.944L53.5854 471.521L39.1956 452.44ZM39.7614 442.569C39.2459 441.887 38.5691 441.342 37.791 440.984C37.0128 440.625 36.1573 440.463 35.3 440.512C34.4427 440.561 33.6101 440.82 32.8758 441.265C32.1415 441.711 31.5282 442.329 31.0901 443.066C30.652 443.803 30.4027 444.636 30.3641 445.49C30.3255 446.345 30.4988 447.195 30.8688 447.965C31.2388 448.736 31.794 449.403 32.4853 449.908C33.1767 450.413 33.9828 450.74 34.8324 450.86C36.2029 451.051 37.595 450.692 38.703 449.861C39.811 449.031 40.5443 447.798 40.7419 446.432C40.8338 445.748 40.7878 445.052 40.6062 444.387C40.4247 443.721 40.1114 443.099 39.6848 442.557L39.7614 442.569ZM140.795 392.572C140.179 391.736 139.325 391.103 138.343 390.755C137.361 390.407 136.296 390.359 135.285 390.618C134.274 390.877 133.362 391.431 132.668 392.208C131.973 392.986 131.526 393.951 131.385 394.981C131.188 396.349 131.545 397.736 132.376 398.839C132.787 399.385 133.303 399.844 133.893 400.191C134.483 400.538 135.137 400.765 135.816 400.86C136.496 400.955 137.188 400.916 137.853 400.745C138.518 400.573 139.143 400.273 139.692 399.862C140.801 399.03 141.535 397.795 141.732 396.428C141.838 395.754 141.81 395.067 141.649 394.406C141.489 393.744 141.199 393.121 140.795 392.572ZM138.646 355.871L139.549 336.214L130.378 324.091L109.958 317.826L97.7926 301.716C96.0403 302.578 94.0286 302.752 92.158 302.203C90.2873 301.655 88.695 300.424 87.6979 298.756C86.7008 297.087 86.3722 295.104 86.7774 293.201C87.1826 291.298 88.2919 289.614 89.8845 288.485C91.4772 287.356 93.4363 286.865 95.3718 287.109C97.3073 287.353 99.0773 288.314 100.329 289.802C101.581 291.289 102.224 293.194 102.129 295.136C102.033 297.078 101.207 298.916 99.8152 300.283L111.451 315.676L131.911 321.903L142.078 335.37L141.169 355.059L254.729 505.643L252.743 507.127L138.646 355.871ZM98.607 291.707C98.1963 291.159 97.6808 290.698 97.09 290.349C96.4992 290.001 95.8448 289.772 95.1643 289.676C94.4838 289.58 93.7906 289.619 93.1243 289.791C92.4581 289.962 91.8321 290.263 91.282 290.676C90.1719 291.509 89.4379 292.746 89.2414 294.115C89.0448 295.485 89.4018 296.874 90.2339 297.978C91.0665 299.08 92.3052 299.807 93.678 299.998C94.7772 300.148 95.8968 299.942 96.8717 299.41L98.1517 298.503C99.0248 297.615 99.5511 296.447 99.6353 295.208C99.7194 293.97 99.3558 292.744 98.6104 291.753L98.607 291.707ZM179.24 544.522L145.205 499.419L148.76 486.998L134 467.451C134.647 466.602 134.965 465.549 134.896 464.487C134.826 463.425 134.375 462.425 133.623 461.67C132.872 460.916 131.872 460.457 130.806 460.38C129.741 460.302 128.681 460.61 127.823 461.247C126.965 461.884 126.366 462.808 126.135 463.848C125.905 464.888 126.059 465.975 126.569 466.909C127.079 467.843 127.91 468.561 128.911 468.932C129.912 469.302 131.014 469.3 132.016 468.925L146.041 487.508L142.486 499.929L177.254 546.007L179.24 544.522ZM117.21 513.614L154.959 563.63L166.217 565.206L181.131 584.969L178.161 595.414L239.171 676.215L241.147 674.729L180.888 594.86L183.858 584.415L167.535 562.893L156.275 561.328L118.537 511.313L106.265 509.613L82.5254 478.144C83.1389 477.27 83.416 476.207 83.306 475.148C83.1959 474.09 82.706 473.108 81.9263 472.383C81.1466 471.657 80.1295 471.237 79.0618 471.2C77.994 471.163 76.9475 471.511 76.1144 472.18C75.2813 472.849 74.7176 473.795 74.5268 474.842C74.3361 475.89 74.5311 476.97 75.076 477.884C75.621 478.798 76.4794 479.484 77.4933 479.816C78.5073 480.149 79.6088 480.105 80.5955 479.694L104.894 511.907L117.21 513.614ZM-87.4448 290.561L-84.5298 280.107L-145.529 199.308L-147.515 200.792L-87.2473 280.673L-90.1624 291.128L-73.9022 312.684L-62.6421 314.249L-24.9041 364.264L-12.6234 365.976L11.1057 397.444C10.5177 398.332 10.2694 399.399 10.4062 400.452C10.543 401.505 11.0557 402.472 11.8506 403.176C12.6455 403.881 13.6694 404.277 14.7351 404.29C15.8009 404.304 16.8371 403.935 17.6545 403.251C18.4718 402.567 19.0156 401.613 19.1863 400.565C19.357 399.516 19.1433 398.443 18.5843 397.54C18.0252 396.638 17.1582 395.968 16.1418 395.651C15.1253 395.335 14.0274 395.394 13.0488 395.818L-11.25 363.605L-23.5198 361.894L-61.2578 311.879L-72.5269 310.302L-87.4448 290.561ZM-11.6676 444.851L-12.5765 464.54L-3.4058 476.664L17.0342 482.876L29.1872 498.995C30.572 498.308 32.1336 498.06 33.6614 498.284C35.3997 498.518 37.0053 499.332 38.2165 500.593C39.4277 501.854 40.1731 503.488 40.3312 505.228C40.4893 506.968 40.0508 508.713 39.0871 510.177C38.1235 511.641 36.6915 512.738 35.0246 513.289C33.3577 513.841 31.5542 513.814 29.9081 513.214C28.262 512.614 26.8703 511.475 25.9599 509.984C25.0495 508.492 24.6741 506.736 24.8949 505.001C25.1156 503.266 25.9195 501.655 27.1756 500.43L15.5286 485.035L-4.93149 478.808L-15.089 465.354L-14.1801 445.665L-127.75 295.136L-125.774 293.649L-11.6676 444.851ZM28.3819 509.016C28.9982 509.852 29.8513 510.484 30.832 510.832C31.8127 511.18 32.8764 511.229 33.8868 510.971C34.8973 510.714 35.8085 510.162 36.5039 509.386C37.1992 508.611 37.6471 507.647 37.7901 506.618C37.9852 505.248 37.6288 503.859 36.7987 502.753C36.3895 502.204 35.874 501.743 35.2825 501.396C34.6911 501.049 34.0356 500.823 33.3546 500.733C32.2519 500.574 31.1261 500.78 30.15 501.319L28.8699 502.226C27.9895 503.112 27.4582 504.283 27.3736 505.525C27.289 506.767 27.6568 507.996 28.4094 508.987L28.3819 509.016ZM102.766 375.387C102.108 379.976 100.098 384.271 96.9927 387.731C93.887 391.19 89.8242 393.657 85.3181 394.82C80.8121 395.983 76.0653 395.791 71.6779 394.266C67.2905 392.741 63.4597 389.953 60.67 386.255C57.8802 382.556 56.2568 378.113 56.005 373.487C55.7533 368.861 56.8845 364.261 59.2556 360.267C61.6267 356.273 65.1312 353.066 69.3259 351.051C73.5206 349.035 78.2171 348.302 82.8214 348.945C88.9904 349.814 94.554 353.086 98.2926 358.042C102.031 362.999 103.64 369.236 102.766 375.387ZM82.4764 351.353C78.3479 350.771 74.1349 351.422 70.3706 353.225C66.6064 355.028 63.4603 357.901 61.3308 361.481C59.2013 365.061 58.1842 369.187 58.4083 373.336C58.6324 377.484 60.0876 381.47 62.5896 384.787C65.0917 388.104 68.5279 390.604 72.4633 391.969C76.3987 393.335 80.6562 393.506 84.6966 392.459C88.737 391.412 92.3786 389.196 95.1602 386.09C97.9418 382.985 99.7383 379.129 100.322 375.013C101.103 369.51 99.6629 363.929 96.3179 359.495C92.973 355.06 87.9957 352.132 82.4764 351.353ZM77.0806 388.902C73.7476 388.438 70.6309 386.999 68.1249 384.768C65.6189 382.536 63.8363 379.611 63.0026 376.365C62.1689 373.118 62.3216 369.695 63.4415 366.528C64.5613 363.361 66.5979 360.594 69.2935 358.576C71.9891 356.558 75.2226 355.38 78.5847 355.191C81.9467 355.002 85.2863 355.811 88.1807 357.515C91.0752 359.219 93.3944 361.742 94.8448 364.764C96.2952 367.786 96.8116 371.172 96.3287 374.492C95.6818 378.941 93.2925 382.959 89.6838 385.666C86.0751 388.373 81.5412 389.548 77.075 388.935L77.0806 388.902ZM81.5467 357.767C78.6994 357.371 75.7954 357.825 73.2018 359.072C70.6082 360.319 68.4417 362.302 66.976 364.772C65.5104 367.242 64.8115 370.087 64.9678 372.948C65.1241 375.808 66.1285 378.556 67.8541 380.842C69.5796 383.129 71.9488 384.853 74.662 385.795C77.3752 386.737 80.3105 386.856 83.0968 386.136C85.8831 385.417 88.3952 383.891 90.3154 381.751C92.2357 379.612 93.4778 376.956 93.8847 374.118C94.4149 370.318 93.4141 366.469 91.1011 363.411C88.788 360.353 85.351 358.336 81.5411 357.8L81.5467 357.767ZM87.4145 373.218C87.6389 371.657 87.3936 370.066 86.7095 368.647C86.0255 367.227 84.9334 366.043 83.5717 365.245C82.2099 364.446 80.6396 364.068 79.0595 364.16C77.4794 364.251 75.9605 364.807 74.6951 365.758C73.4297 366.709 72.4746 368.011 71.9508 369.5C71.4269 370.989 71.3578 372.598 71.7523 374.124C72.1467 375.649 72.9869 377.022 74.1666 378.069C75.3463 379.116 76.8123 379.79 78.3793 380.006C80.471 380.293 82.5946 379.744 84.2863 378.478C85.9781 377.213 87.1007 375.333 87.4089 373.251L87.4145 373.218ZM104.147 408.238L95.26 407.002L93.9926 415.848L102.88 417.084L104.147 408.238ZM102.025 422.994L93.1487 421.76L91.8684 430.615L100.755 431.851L102.025 422.994ZM99.9135 437.753L91.0265 436.517L89.7571 445.374L98.6332 446.608L99.9135 437.753ZM97.7837 452.553L88.9076 451.319L87.6292 460.163L96.5162 461.399L97.7837 452.553ZM78.0555 413.682L86.9407 414.929L88.21 406.072L79.323 404.836L78.0555 413.682ZM86.0878 420.829L77.2117 419.594L75.9442 428.44L84.8203 429.674L86.0878 420.829Z" fill="white"/>
</svg>
